<svg xmlns="http://www.w3.org/2000/svg">
    <symbol id="home-icon" viewBox="0 0 251.479 251.479">
        <path d="M209.355,135.551c-4.143,0-7.5,3.358-7.5,7.5v76.109H49.634v-76.109c0-4.142-3.357-7.5-7.5-7.5c-4.143,0-7.5,3.358-7.5,7.5
        v83.609c0,4.142,3.357,7.5,7.5,7.5h167.221c4.143,0,7.5-3.358,7.5-7.5v-83.609C216.855,138.909,213.497,135.551,209.355,135.551z"
        />
        <path d="M249.282,137.748L131.035,19.515c-2.928-2.929-7.677-2.928-10.606,0L2.197,137.748c-2.929,2.929-2.929,7.678,0,10.606
        c1.465,1.464,3.385,2.197,5.304,2.197c1.92,0,3.839-0.732,5.304-2.197l112.929-112.93l112.943,112.93
        c2.928,2.929,7.677,2.928,10.607-0.001C252.211,145.425,252.211,140.676,249.282,137.748z"/>
    </symbol>

    <symbol id="messages-icon" viewBox="0 0 488 488">
        <path d="M484.26,157.654L484.26,157.654L381.968,75.239c-3.6-2.901-8.699-3.001-12.299-0.2L206.983,198.661
        c-3.6,2.701-4.9,7.501-3.2,11.702c33.897,83.115,37.697,129.123,14.199,184.633H9.999c-5.5,0-9.999,4.501-9.999,10.002
        S4.5,415,9.999,415h214.482c0.3,0,0.6,0,0.9,0c0.1,0,0.1,0,0.2,0s0.1,0,0.2,0c0.2,0,0.4-0.1,0.6-0.1c0.1,0,0.2,0,0.3-0.1
        c0.2,0,0.5-0.1,0.7-0.2c0.1,0,0.2-0.1,0.3-0.1h0.1c0.1,0,0.2-0.1,0.3-0.1c0.1,0,0.2-0.1,0.3-0.1s0.2-0.1,0.3-0.1
        c0.1,0,0.1-0.1,0.2-0.1c0,0,0.1,0,0.1-0.1c0.1,0,0.1-0.1,0.2-0.1c0.1-0.1,0.2-0.1,0.3-0.2c0.1-0.1,0.2-0.1,0.3-0.2
        c0.1,0,0.2-0.1,0.2-0.2c0.1,0,0.1-0.1,0.2-0.1c0,0,0.1,0,0.1-0.1c3.2-2.3,6.299-4.501,9.299-6.601
        c41.997-30.005,62.995-45.008,176.485-35.206c4.7,0.4,8.999-2.5,10.399-7.001l61.095-196.035
        C488.759,164.455,487.459,160.154,484.26,157.654z M409.766,350.789c-77.893-6.201-113.99,0-142.888,14.503l62.795-83.615
        c4.4,1.9,9.199,3.101,14.199,3.401c0.6,0,1.2,0,1.9,0c9.899,0,19.198-3.601,26.598-10.302
        c8.099-7.401,12.799-17.603,13.299-28.805c1-22.704-16.299-42.107-38.497-43.108c-10.799-0.5-21.098,3.301-29.198,10.602
        c-8.099,7.401-12.799,17.503-13.299,28.505c-0.5,10.302,3.1,20.004,9.199,27.605l-62.795,83.515c1.8-11.702,2.4-23.404,1.8-35.506
        c-1.5-29.805-9.999-63.211-27.598-107.619l150.287-114.32l90.892,73.313L409.766,350.789z M324.673,242.769
        c0.3-5.601,2.7-10.802,6.799-14.603c3.9-3.501,8.699-5.401,13.799-5.401c0.3,0,0.6,0,0.9,0
        c11.299,0.5,19.998,10.502,19.498,22.204c-0.3,5.901-2.7,11.202-6.799,14.903c-3.8,3.501-8.799,5.301-13.999,5.101
        c-4.3-0.1-8.199-1.6-11.399-4.001c-0.1-0.1-0.3-0.2-0.4-0.4c-0.1-0.1-0.2-0.1-0.3-0.2
        C327.573,256.272,324.273,249.771,324.673,242.769z"/>
    </symbol>

    <symbol id="music-icon" viewBox="0 0 470 470">
        <path d="M401.17,70.08C356.785,25.694,297.771,1.25,235,1.25S113.215,25.694,68.83,70.08C24.444,114.465,0,173.479,0,236.25v20
        c0,20.678,16.822,37.5,37.5,37.5h0.687c1.934,6.616,4.2,13.148,6.813,19.581v32.919c0,4.142,3.358,7.5,7.5,7.5
        c4.142,0,7.5-3.358,7.5-7.5v-34.398c0-0.986-0.194-1.962-0.572-2.873C49.854,285.894,45,261.424,45,236.25
        c0-104.766,85.234-190,190-190s190,85.234,190,190c0,25.175-4.854,49.645-14.428,72.729c-0.378,0.911-0.572,1.887-0.572,2.873
        v34.398c0,4.142,3.358,7.5,7.5,7.5c4.142,0,7.5-3.358,7.5-7.5v-32.919c2.613-6.433,4.879-12.965,6.813-19.581h0.687
        c20.678,0,37.5-16.822,37.5-37.5v-20C470,173.479,445.556,114.465,401.17,70.08z M15,256.25v-12.5h15.149
        c0.421,11.769,1.833,23.382,4.226,34.778C23.443,277.002,15,267.596,15,256.25z M235,31.25
        c-110.526,0-200.886,87.925-204.848,197.5h-15.01C19.111,110.902,116.203,16.25,235,16.25s215.889,94.652,219.858,212.5h-15.01
        C435.886,119.175,345.526,31.25,235,31.25z M455,256.25c0,11.346-8.443,20.752-19.375,22.278
        c2.393-11.396,3.805-23.009,4.226-34.778H455V256.25z"/>
        <path d="M157.5,223.75c-26.634,0-48.683,19.94-52.041,45.672C88.137,272.728,75,287.979,75,306.25v80
        c0,18.271,13.137,33.522,30.459,36.828c3.359,25.732,25.408,45.672,52.041,45.672c28.949,0,52.5-23.551,52.5-52.5v-140
        C210,247.301,186.449,223.75,157.5,223.75z M195,416.25c0,20.678-16.822,37.5-37.5,37.5s-37.5-16.822-37.5-37.5v-55
        c0-4.142-3.358-7.5-7.5-7.5c-4.142,0-7.5,3.358-7.5,7.5v46.21c-8.729-3.096-15-11.432-15-21.21v-80
        c0-9.778,6.271-18.114,15-21.21v46.21c0,4.142,3.358,7.5,7.5,7.5c4.142,0,7.5-3.358,7.5-7.5v-55c0-20.678,16.822-37.5,37.5-37.5
        s37.5,16.822,37.5,37.5V416.25z"/>
        <path d="M364.541,269.422c-3.359-25.732-25.408-45.672-52.041-45.672c-28.949,0-52.5,23.551-52.5,52.5v140
		c0,28.949,23.551,52.5,52.5,52.5c26.634,0,48.683-19.94,52.041-45.672C381.863,419.772,395,404.521,395,386.25v-80
		C395,287.979,381.863,272.728,364.541,269.422z M380,386.25c0,9.778-6.271,18.114-15,21.21v-46.21c0-4.142-3.358-7.5-7.5-7.5
		c-4.142,0-7.5,3.358-7.5,7.5v55c0,20.678-16.822,37.5-37.5,37.5c-20.678,0-37.5-16.822-37.5-37.5v-140
		c0-20.678,16.822-37.5,37.5-37.5c20.678,0,37.5,16.822,37.5,37.5v55c0,4.142,3.358,7.5,7.5,7.5c4.142,0,7.5-3.358,7.5-7.5v-46.21
		c8.729,3.096,15,11.432,15,21.21V386.25z"/>
    </symbol>

    <symbol id="news-icon" viewBox="0 0 465 465">
        <path d="M278.521,388.495h-92.043c-4.142,0-7.5,3.357-7.5,7.5s3.358,7.5,7.5,7.5h92.043c4.142,0,7.5-3.357,7.5-7.5
        S282.664,388.495,278.521,388.495z"/>
        <path d="M455.672,307.102L336.504,189.083c-5.3-5.249-14.923-9.207-22.383-9.207h-21.373
        c-3.708-29.907-29.262-53.137-60.156-53.137h-36.096c22.692-33.624,19.189-79.785-10.542-109.517
        c-1.406-1.406-3.314-2.196-5.303-2.196s-3.897,0.79-5.303,2.196l-50.553,50.553L95.187,38.169c-2.929-2.928-7.678-2.928-10.606,0
        c-2.929,2.93-2.929,7.678,0,10.607l29.607,29.606l-50.553,50.553c-2.929,2.93-2.929,7.678,0,10.607
        c14.555,14.555,33.387,23.264,53.66,24.995v15.338H17.5c-9.649,0-17.5,7.851-17.5,17.5v188.619c0,9.649,7.851,17.5,17.5,17.5
        h16.022c4.142,0,7.5-3.357,7.5-7.5s-3.358-7.5-7.5-7.5H17.5c-1.355,0-2.5-1.145-2.5-2.5V197.376c0-1.355,1.145-2.5,2.5-2.5h296.622
        c3.555,0,9.302,2.364,11.828,4.865L445.117,317.76c2.464,2.44,4.883,8.239,4.883,11.708v56.527c0,1.355-1.145,2.5-2.5,2.5h-16.022
        c-4.142,0-7.5,3.357-7.5,7.5s3.358,7.5,7.5,7.5H447.5c9.649,0,17.5-7.851,17.5-17.5v-56.527
        C465,321.983,460.99,312.367,455.672,307.102z M130.088,83.696c0.003-0.003,0.007-0.006,0.01-0.009s0.006-0.007,0.009-0.01
        l50.267-50.267c22.731,28.051,21.057,69.443-5.027,95.526c-13.503,13.504-31.457,20.94-50.553,20.94
        c-16.574,0-32.287-5.602-44.977-15.91L130.088,83.696z M132.295,164.538c19.223-1.642,37.139-9.572,51.353-22.798h48.945
        c22.609,0,41.42,16.53,45.009,38.137H132.295V164.538z"/>
        <path d="M355,342.017c-29.764,0-53.979,24.215-53.979,53.979s24.215,53.979,53.979,53.979s53.979-24.215,53.979-53.979
        S384.764,342.017,355,342.017z M355,434.974c-21.493,0-38.979-17.485-38.979-38.979s17.486-38.979,38.979-38.979
        s38.979,17.485,38.979,38.979S376.493,434.974,355,434.974z"/>
        <path d="M414.867,311.968H290v-87.092h21.781c4.142,0,7.5-3.357,7.5-7.5s-3.358-7.5-7.5-7.5H289.5c-7.995,0-14.5,6.505-14.5,14.5
        v88.092c0,7.995,6.505,14.5,14.5,14.5h125.367c4.142,0,7.5-3.357,7.5-7.5S419.009,311.968,414.867,311.968z"/>
        <path d="M110,342.017c-29.764,0-53.979,24.215-53.979,53.979S80.236,449.974,110,449.974s53.979-24.215,53.979-53.979
        S139.764,342.017,110,342.017z M110,434.974c-21.493,0-38.979-17.485-38.979-38.979S88.507,357.017,110,357.017
        s38.979,17.485,38.979,38.979S131.493,434.974,110,434.974z"/>
    </symbol>

    <symbol id="settings-icon" viewBox="0 0 64 64">
        <path id="Hammer-and-skrewdriver" d="M45.3984222,18.5370998l7.9766006,7.9766006h1.4141006l8.2889977-8.2901001v-1.4139996
        L46.4160233,0.1465h-8.6133003l-4.6893997,4.6914001v1.414l10.8711014,10.8710995L29.1113243,31.9964008L12.3596239,15.2453003
        c0.71-0.7182999,1.0625-1.7049999,0.9646006-2.7150002c-0.0996008-1.0137005-0.6435003-1.9209003-1.4922009-2.4872999
        l-4.6278996-3.085C5.8682241,6.0654001,4.0674243,6.2431998,2.9170244,7.3895998l-0.1143,0.1143003
        c-1.1386,1.1387-1.3164001,2.9374995-0.4238,4.2802997l3.085,4.6239996c0.5653996,0.8495998,1.4726,1.3945007,2.4872999,1.4941006
        c0.1133003,0.0107994,0.2256117,0.0165997,0.3368998,0.0165997c0.8955002,0,1.7538996-0.352499,2.3964996-0.9940987
        l0.2631006-0.2632999l16.7495995,16.7489986L1.2148358,59.8935013c-0.3906114,0.3906975-0.3906114,1.0234985,0,1.4140968
        c0.1953886,0.1953011,0.4511886,0.2930031,0.7070886,0.2930031c0.2558,0,0.5116999-0.097702,0.707-0.2930031L29.1114235,34.824501
        l6.4735985,6.4732971L33.2578354,43.625v1.4140015l18.8153877,18.8144989h1.4141006l5.7880974-5.7891006v-1.4140015
        L40.460022,37.8368988h-1.4140968l-2.0469017,2.0469017l-6.4736004-6.4734001L45.3984222,18.5370998z M38.6309242,2.1465001
        h6.9570007l15.3690987,15.3701l-6.875,6.8759995L35.2344246,5.5448999L38.6309242,2.1465001z M8.1484241,15.9120998
        c-0.4159999-0.0409994-0.7880998-0.2646999-1.0204997-0.6132994l-3.0849004-4.6240005
        c-0.3661883-0.5508003-0.2929997-1.29,0.1572003-1.7402l0.1396112-0.1377001c0.2685885-0.2685995,0.6259999-0.4073,0.9853888-0.4073
        c0.2676115,0,0.5351,0.0762005,0.7694998,0.2325001l4.6259999,3.0830002c0.3486004,0.2334003,0.5723,0.6054001,0.6133003,1.0205002
        c0.04,0.4179001-0.1055002,0.8270998-0.4024,1.1230001L9.270524,15.5107002
        C8.9746246,15.8076,8.5645237,15.9580002,8.1484241,15.9120998z M39.7529221,39.9580002L57.1543236,57.357399l-4.3740005,4.375
        L35.3789253,44.3320007L39.7529221,39.9580002z"/>
    </symbol>
</svg>